# xmcd CD database file
#
# Track frame offsets:
#	150
#	28687
#	60915
#	88925
#	123575
#	162190
#	189850
#	215892
#
# Disc length: 3200 seconds
#
# Revision: 7
# Processed by: cddbd v1.5.2PL0 Copyright (c) Steve Scherf et al.
# Submitted via: CDex 1.70beta2
#
DISCID=6a0c7e08
DTITLE=Gerry Mulligan feat. Lionel Hampton - Jazz Collection 6
DYEAR=1977
DGENRE=Jazz
TTITLE0=Apple Core
TTITLE1=Song For Johnny Hodges
TTITLE2=Blight Of The Fumble Bee
TTITLE3=Gerry Meets Hamp
TTITLE4=Blues For Gerry
TTITLE5=Line For Lyons
TTITLE6=Walking Shoes
TTITLE7=Limelight
EXTD=CD 13 YEAR: 1977
EXTT0=
EXTT1=
EXTT2=
EXTT3=
EXTT4=
EXTT5=
EXTT6=
EXTT7=
PLAYORDER=
